<svg width="133" height="55" viewBox="0 0 133 55" fill="none" xmlns="http://www.w3.org/2000/svg">
<path d="M86.3471 27.0836V26.9528C90.2681 24.9816 92.0976 21.4382 92.0976 17.7666C92.0976 12.6493 88.1734 6.61328 77.0156 6.61328C67.7512 6.61328 61.3924 11.4693 61.3924 18.883C61.3924 22.6184 62.8138 26.0315 66.8042 28.1969L66.8715 28.3294C62.2753 30.2952 59.3662 33.6427 59.3662 38.7615C59.3662 44.2693 64.3026 50.6976 76.4063 50.6976C87.3616 50.6976 94.1237 45.3853 94.1237 37.5118C94.1237 31.8715 90.1347 28.4582 86.3471 27.0836ZM76.5556 14.6247C79.6634 14.6247 80.8465 16.7752 80.8465 19.0692C80.8465 21.1682 79.5269 23.3398 77.77 23.7348C74.8612 22.8156 71.6272 20.8628 71.6272 18.6317C71.6271 16.4003 73.6459 14.6247 76.5556 14.6247ZM76.8804 42.6969C73.8374 42.6969 71.6272 40.24 71.6272 37.6135C71.6272 34.989 73.0834 32.3997 75.7226 31.7439C78.9 32.5321 81.8624 35.2104 81.8624 38.2956C81.8624 40.7878 79.7192 42.6969 76.8804 42.6969Z" fill="white"/>
<path d="M98.2419 38.7612C98.2419 44.269 103.18 50.6973 115.284 50.6973C126.238 50.6973 133 45.385 133 37.5115C133 31.8715 129.011 28.4582 125.223 27.0837V26.9528C129.146 24.9816 130.975 21.4382 130.975 17.7666C130.975 12.6493 127.051 6.61328 115.891 6.61328C106.629 6.61328 100.268 11.4693 100.268 18.883C100.268 22.6184 101.693 26.0315 105.681 28.1969L105.75 28.3294C101.152 30.2949 98.2419 33.6426 98.2419 38.7612ZM115.43 14.6246C118.542 14.6246 119.722 16.775 119.722 19.0691C119.722 21.168 118.403 23.3397 116.646 23.7346C113.736 22.8154 110.504 20.8626 110.504 18.6315C110.504 16.4002 112.525 14.6246 115.43 14.6246ZM114.598 31.7437C117.776 32.5319 120.741 35.2102 120.741 38.2955C120.741 40.7878 118.598 42.6968 115.758 42.6968C112.715 42.6968 110.504 40.2398 110.504 37.6133C110.504 34.9889 111.962 32.3995 114.598 31.7437Z" fill="white"/>
<path d="M55.2721 27.666C55.2721 12.7306 42.8993 0.626709 27.636 0.626709C12.3742 0.626709 0 12.7306 0 27.666C0 42.5973 12.3744 54.704 27.636 54.704C42.8991 54.704 55.2721 42.5973 55.2721 27.666ZM24.5659 40.6855C24.5659 46.2162 19.9833 50.6975 14.3312 50.6975V40.6855V16.6488C14.3312 11.1169 18.9153 6.63748 24.5659 6.63748H32.7537H32.7547H42.9902C42.9902 12.1638 38.4062 16.6488 32.7547 16.6488H24.5658V24.6623H30.7068H30.7084H40.9429C40.9429 30.1942 36.3605 34.6766 30.7084 34.6766H24.5658V40.6855H24.5659Z" fill="white"/>
</svg>
