<?xml version="1.0" encoding="UTF-8"?>
<svg version="1.1" xmlns="http://www.w3.org/2000/svg" width="500" height="500">
<path d="M0 0 C1.3850726 -0.00576172 1.3850726 -0.00576172 2.79812646 -0.01163983 C4.3299008 -0.01034011 4.3299008 -0.01034011 5.89262009 -0.00901413 C7.51204533 -0.01347081 7.51204533 -0.01347081 9.16418624 -0.01801753 C12.80615481 -0.02673569 16.44809062 -0.02821541 20.09006882 -0.02970505 C22.69143367 -0.03433103 25.29279785 -0.03935539 27.89416122 -0.04475021 C34.97892873 -0.0583452 42.06369059 -0.06436024 49.14846897 -0.06876087 C53.57111926 -0.07152167 57.99376736 -0.07575876 62.41641617 -0.08026505 C74.65780246 -0.09245989 86.89918699 -0.10275835 99.14057922 -0.10614014 C99.92441659 -0.1063597 100.70825396 -0.10657927 101.51584397 -0.10680549 C102.30157623 -0.10702377 103.08730849 -0.10724204 103.89685082 -0.10746694 C105.48908885 -0.1079104 107.08132688 -0.10835697 108.67356491 -0.10880661 C109.46337296 -0.10902804 110.25318101 -0.10924947 111.06692263 -0.10947761 C123.86325753 -0.11342519 136.65953547 -0.13087703 149.45584837 -0.15416613 C162.58894705 -0.17787549 175.72201715 -0.19034182 188.85513759 -0.19150805 C196.2307538 -0.19242512 203.60629584 -0.19818522 210.98189163 -0.21632767 C217.91917692 -0.23333155 224.85631915 -0.23498434 231.79361916 -0.22618866 C234.3421701 -0.22541601 236.89072848 -0.22979084 239.43926048 -0.23964691 C242.9141989 -0.25229918 246.38863288 -0.24652578 249.86356735 -0.23606491 C250.87582736 -0.24412132 251.88808737 -0.25217772 252.93102193 -0.26047826 C258.2030052 -0.22327428 262.20356955 -0.05126715 266.632061 3.13142776 C286.79973422 33.38293758 270.632061 75.77363783 270.632061 112.13142776 C176.912061 112.13142776 83.192061 112.13142776 -13.367939 112.13142776 C-14.367939 14.13142776 -14.367939 14.13142776 -11.367939 5.13142776 C-7.67229889 1.52592522 -5.09290616 0.00792551 0 0 Z " fill="#0096B1" transform="translate(145.36793899536133,170.86857223510742)"/>
<path d="M0 0 C7.11264327 6.30438835 9.01767707 16.95228834 11.77734375 25.75 C12.25232653 27.24741322 12.72788797 28.744643 13.20399475 30.24169922 C14.4523977 34.17261837 15.69282099 38.10601075 16.93157959 42.03997803 C18.17795734 45.99306356 19.43214999 49.94366692 20.68554688 53.89453125 C22.95682353 61.05912778 25.22513011 68.22463776 27.47653198 75.39550781 C28.36910136 78.23651853 29.27325187 81.07359049 30.18289185 83.90917969 C30.64612042 85.3639251 31.10932708 86.81867748 31.57250977 88.2734375 C31.90040072 89.28574936 31.90040072 89.28574936 32.23491573 90.31851196 C33.13301132 93.15206198 33.75 95.443445 33.75 98.4375 C32.51624665 98.43988835 31.28249331 98.44227671 30.01135349 98.44473743 C0.708733 98.50212703 -28.59380775 98.57487869 -57.89633917 98.66648628 C-61.50486705 98.67775412 -65.11339531 98.68889263 -68.72192383 98.69995117 C-69.79948988 98.7032567 -69.79948988 98.7032567 -70.89882494 98.706629 C-82.52278144 98.74197822 -94.14673788 98.76685575 -105.77072816 98.78784702 C-117.7026155 98.80962802 -129.63443324 98.84270024 -141.56626135 98.88620156 C-148.26625771 98.91030601 -154.96617236 98.92886492 -161.66621208 98.93511391 C-167.97399236 98.94116165 -174.28157563 98.96115082 -180.58928299 98.99177551 C-182.90273356 99.00056061 -185.21620987 99.00427735 -187.52967644 99.00250816 C-190.69281713 99.00085314 -193.85535892 99.01757501 -197.01841736 99.03877258 C-197.92992032 99.03392501 -198.84142329 99.02907743 -199.78054756 99.02408296 C-208.10672781 99.11591318 -215.55457004 100.82526648 -221.75921249 106.6573267 C-226.80055478 112.67727448 -227.84107884 119.48425883 -227.79589844 127.08813477 C-227.80623611 128.00628464 -227.81657379 128.92443451 -227.82722473 129.8704071 C-227.85647458 132.87342297 -227.85814813 135.87575962 -227.859375 138.87890625 C-227.87436867 140.97355928 -227.8910983 143.06820054 -227.90948486 145.16282654 C-227.95303709 150.65199347 -227.97313064 156.14100094 -227.98822021 161.63031006 C-228.00783503 167.24126568 -228.04980012 172.85205019 -228.08984375 178.46289062 C-228.16501453 189.45437415 -228.2153855 200.44581913 -228.25 211.4375 C-230.61719243 209.07030757 -231.05707454 207.41852214 -232.05908203 204.23657227 C-232.40824677 203.13823563 -232.7574115 202.03989899 -233.11715698 200.90827942 C-233.4935733 199.70233627 -233.86998962 198.49639313 -234.2578125 197.25390625 C-234.65606232 195.99547409 -235.05431213 194.73704193 -235.46463013 193.44047546 C-236.55033205 190.00896621 -237.6282422 186.57505856 -238.70411682 183.14045715 C-239.82292104 179.570905 -240.94637721 176.00281721 -242.06933594 172.43457031 C-243.44305598 168.06877391 -244.81606767 163.70276049 -246.18603516 159.33578491 C-248.74498788 151.18372525 -251.33321259 143.04211442 -253.9624939 134.91246033 C-255.46568491 130.26348081 -256.95733253 125.61083937 -258.44769287 120.95773315 C-259.14400412 118.79382105 -259.84562793 116.63161057 -260.55279541 114.47122192 C-261.53424687 111.46968508 -262.49575154 108.46241329 -263.453125 105.453125 C-263.88288132 104.1648304 -263.88288132 104.1648304 -264.32131958 102.85050964 C-266.55686875 95.71129554 -267.86631659 88.07421233 -264.75 81.0625 C-258.39990587 74.39490116 -250.53653977 71.93987307 -241.89453125 69.34765625 C-240.01988388 68.76909919 -238.14523826 68.19053647 -236.27065563 67.61176968 C-234.2632569 66.99431732 -232.25422627 66.38247297 -230.24462891 65.7722168 C-225.97968003 64.4766693 -221.71981404 63.16496341 -217.4609375 61.84960938 C-216.73466345 61.62531439 -216.0083894 61.4010194 -215.26010704 61.1699276 C-213.77504257 60.71123363 -212.28999824 60.25247447 -210.8049736 59.79365158 C-208.53172318 59.09177196 -206.25803845 58.39131366 -203.98428345 57.69107056 C-189.30520098 53.16654471 -174.6724125 48.50072352 -160.04464722 43.81341553 C-152.84896633 41.50765625 -145.65150983 39.20745916 -138.453125 36.91015625 C-137.74164747 36.6830899 -137.03016994 36.45602356 -136.29713249 36.22207642 C-117.39408092 30.19198664 -98.45226026 24.28631868 -79.50854492 18.38549805 C-67.76948923 14.72839166 -56.03299989 11.0645358 -44.31640625 7.3359375 C-42.84616501 6.86816643 -42.84616501 6.86816643 -41.34622192 6.39094543 C-36.89831225 4.97466765 -32.45170875 3.55444122 -28.00683594 2.12866211 C-26.4902433 1.64434055 -24.97364233 1.16004508 -23.45703125 0.67578125 C-22.78950333 0.46017548 -22.1219754 0.2445697 -21.43421936 0.02243042 C-13.78121182 -2.41626774 -7.45459999 -3.5839423 0 0 Z " fill="#0196B1" transform="translate(350.25,62.5625)"/>
<path d="M0 0 C93.72 0 187.44 0 284 0 C285.52553177 4.57659532 284.99487211 9.03064135 284.8125 13.8125 C284.78446289 15.29073242 284.78446289 15.29073242 284.75585938 16.79882812 C284.53385969 22.59808313 284.13056413 26.57786664 280 31 C274.55290208 34.58773892 269.59805607 34.42532626 263.30311584 34.38768005 C262.22487043 34.39306559 261.14662502 34.39845113 260.03570551 34.40399987 C256.4222065 34.41830885 252.8090723 34.41116825 249.19555664 34.40405273 C246.60507411 34.40975473 244.01459409 34.41671833 241.42411804 34.42485046 C235.11793542 34.44203738 228.81185245 34.44287873 222.50565249 34.43763756 C217.37951018 34.43359448 212.2533973 34.43504105 207.12725639 34.44038582 C206.03246434 34.44150845 206.03246434 34.44150845 204.91555528 34.44265376 C203.4327966 34.44418526 201.95003792 34.4457236 200.46727925 34.44726873 C186.56559037 34.46099334 172.66395779 34.45555633 158.7622702 34.44408352 C146.04766709 34.43415078 133.33320948 34.44709253 120.61862881 34.47101771 C107.55883659 34.49540708 94.49911215 34.50501701 81.43929762 34.49836498 C74.10896952 34.49487244 66.77875333 34.49710709 59.44844246 34.51461601 C52.55618971 34.5308746 45.66421951 34.52615887 38.77197456 34.50731087 C36.24158278 34.50361768 33.71117051 34.50675457 31.18079758 34.51719666 C27.72816493 34.53035751 24.27646027 34.51890124 20.8238678 34.50120544 C19.82114006 34.51081045 18.81841231 34.52041546 17.78529888 34.53031152 C11.66787836 34.46574422 7.92695075 33.73271483 3 30 C0 25 0 25 0 0 Z " fill="#0196B1" transform="translate(132,308)"/>
<path d="M0 0 C2.97 0 5.94 0 9 0 C9 13.53 9 27.06 9 41 C6.36 41 3.72 41 1 41 C1 40.34 1 39.68 1 39 C0.34 39.495 -0.32 39.99 -1 40.5 C-4.83456827 42.41728414 -7.78984876 42.73442801 -12 42 C-15.83589143 40.03943327 -17.33658569 37.77277616 -18.875 33.875 C-20.65511075 27.74575501 -20.28965249 21.88636509 -17.6875 16.0625 C-13.73250683 11.22861946 -13.73250683 11.22861946 -10.10546875 10.75 C-5.8320466 10.62314517 -4.00803148 10.99598426 0 13 C0 8.71 0 4.42 0 0 Z M-8.625 19.0625 C-10.68927108 21.97124562 -10.81777724 24.47702672 -11 28 C-10.53712479 30.82632926 -10.53712479 30.82632926 -9 33 C-6.47627099 34.36078035 -6.47627099 34.36078035 -4 35 C-1.55663023 33.24382798 -0.16789306 31.87982422 0.40625 28.87109375 C0.56200582 24.93176956 0.50527668 22.71435668 -1.8125 19.4375 C-4.41276152 17.72875672 -5.92741484 17.29869432 -8.625 19.0625 Z " fill="#0797B0" transform="translate(188,361)"/>
<path d="M0 0 C0.763125 0.33 1.52625 0.66 2.3125 1 C1.81418276 4.68754757 1.21182357 6.60490662 -1.6875 9 C-2.6775 8.67 -3.6675 8.34 -4.6875 8 C-6.08189664 7.93334624 -7.47919875 7.91461801 -8.875 7.9375 C-10.133125 7.958125 -11.39125 7.97875 -12.6875 8 C-12.6875 9.32 -12.6875 10.64 -12.6875 12 C-11.93984375 12.37511719 -11.1921875 12.75023437 -10.421875 13.13671875 C0.18808638 18.6500102 0.18808638 18.6500102 2.3125 23 C3.09129293 27.58064228 2.95918669 30.87428613 0.625 34.9375 C-3.31063629 38.44766209 -6.98720343 39.27921515 -12.1875 39.25 C-13.1053125 39.25515625 -14.023125 39.2603125 -14.96875 39.265625 C-18.14138517 38.9556549 -21.35816075 38.32933925 -23.6875 36 C-23.72842937 33.66702567 -23.72991723 31.33294775 -23.6875 29 C-23.0275 28.67 -22.3675 28.34 -21.6875 28 C-21.006875 28.309375 -20.32625 28.61875 -19.625 28.9375 C-15.61176282 30.38909643 -11.91049652 30.16560771 -7.6875 30 C-7.76999825 27.58854114 -7.76999825 27.58854114 -8.6875 25 C-11.10000658 23.27096973 -11.10000658 23.27096973 -14.0625 22 C-18.4541473 19.96060706 -20.6413391 18.45940715 -22.6875 14 C-23.57084509 9.79814225 -23.16989109 6.79249965 -20.9375 3.125 C-15.02042933 -2.46334452 -7.53837795 -2.04430588 0 0 Z " fill="#0296B2" transform="translate(278.6875,364)"/>
<path d="M0 0 C3.50190531 3.16025601 5.338732 5.70177357 5.99609375 10.43359375 C6.0065629 19.32189816 6.0065629 19.32189816 3.9375 23.9375 C0.01130239 27.86369761 -3.42507121 29.46279783 -8.9375 29.75 C-13.41447941 29.59172295 -15.99908814 28.25971017 -19.4375 25.3125 C-23.25907933 21.09558487 -23.80995552 17.12652273 -23.71484375 11.47265625 C-23.21601076 7.58737957 -21.74876221 4.45437207 -19.4375 1.3125 C-13.70864889 -3.05233894 -6.31091827 -3.09808715 0 0 Z M-12.0625 6.3125 C-14.18132722 9.3944305 -14.43038917 12.66464272 -14.4375 16.3125 C-14.0041741 19.23761453 -14.0041741 19.23761453 -12.4375 21.3125 C-10.09654469 22.56403259 -10.09654469 22.56403259 -7.4375 22.3125 C-4.9006891 21.1142483 -4.9006891 21.1142483 -3.4375 18.3125 C-2.88638346 14.90559776 -2.67089198 11.68895736 -3.4375 8.3125 C-6.13395045 5.66746492 -8.48292096 4.10968213 -12.0625 6.3125 Z " fill="#0B96AC" transform="translate(335.4375,373.6875)"/>
<path d="M0 0 C3.79853672 1.7956719 5.52011124 3.29616315 7.875 6.75 C9 10 9 10 9 18 C2.73 18 -3.54 18 -10 18 C-8.5 22 -8.5 22 -6 23 C-1.46886254 23.14856188 2.57882704 23.10529324 7 22 C7 24.31 7 26.62 7 29 C1.63310284 31.86234515 -4.5463158 32.02331384 -10.3203125 30.3125 C-13.72804954 28.80353895 -15.69054904 27.39648404 -18 24.4375 C-19.76236021 18.37938677 -19.84181191 12.57220305 -17.875 6.5625 C-13.11847798 0.0619199 -7.67331104 -1.222739 0 0 Z M-8 7 C-8.66 8.65 -9.32 10.3 -10 12 C-6.7 12 -3.4 12 0 12 C-0.57125354 8.25724788 -0.57125354 8.25724788 -2 7 C-3.99958364 6.95919217 -6.00045254 6.95745644 -8 7 Z " fill="#0F95AE" transform="translate(388,372)"/>
<path d="M0 0 C3.79853672 1.7956719 5.52011124 3.29616315 7.875 6.75 C9 10 9 10 9 18 C2.73 18 -3.54 18 -10 18 C-8.5 22 -8.5 22 -6 23 C-1.46886254 23.14856188 2.57882704 23.10529324 7 22 C7 24.31 7 26.62 7 29 C1.63310284 31.86234515 -4.5463158 32.02331384 -10.3203125 30.3125 C-13.72804954 28.80353895 -15.69054904 27.39648404 -18 24.4375 C-19.76236021 18.37938677 -19.84181191 12.57220305 -17.875 6.5625 C-13.11847798 0.0619199 -7.67331104 -1.222739 0 0 Z M-8 7 C-8.66 8.65 -9.32 10.3 -10 12 C-6.7 12 -3.4 12 0 12 C-0.57125354 8.25724788 -0.57125354 8.25724788 -2 7 C-3.99958364 6.95919217 -6.00045254 6.95745644 -8 7 Z " fill="#0597B1" transform="translate(156,372)"/>
<path d="M0 0 C0.763125 0.495 1.52625 0.99 2.3125 1.5 C1.3225 3.81 0.3325 6.12 -0.6875 8.5 C-1.3475 8.335 -2.0075 8.17 -2.6875 8 C-6.55146612 7.35600565 -9.76125943 7.1833677 -13.6875 7.5 C-17.01149758 10.60954613 -17.64347699 13.82864903 -17.9375 18.3125 C-17.89828305 22.56361782 -16.78516018 26.40233982 -13.6875 29.5 C-12.08586084 29.59919077 -10.47970082 29.62969898 -8.875 29.625 C-8.00230469 29.62757813 -7.12960938 29.63015625 -6.23046875 29.6328125 C-3.90095785 29.51114834 -1.91811985 29.15514709 0.3125 28.5 C0.3125 31.14 0.3125 33.78 0.3125 36.5 C-6.02671609 39.37729338 -12.54390334 39.58596976 -19.125 37.3125 C-23.58300155 34.15927939 -25.97803059 30.63574502 -27.6875 25.5 C-28.38673093 18.32607228 -28.46739546 11.75637869 -24.6875 5.5 C-18.2261691 -2.15157606 -9.22415994 -3.75220065 0 0 Z " fill="#0A95AF" transform="translate(107.6875,364.5)"/>
<path d="M0 0 C1.98 0 3.96 0 6 0 C6 1.98 6 3.96 6 6 C8.64 6 11.28 6 14 6 C14 8.31 14 10.62 14 13 C11.36 13 8.72 13 6 13 C6.33 17.95 6.66 22.9 7 28 C10.79788698 29.12126781 10.79788698 29.12126781 14 29 C14 31.31 14 33.62 14 36 C11.67404054 37.16297973 10.21276769 37.16600691 7.625 37.1875 C6.85414063 37.20167969 6.08328125 37.21585937 5.2890625 37.23046875 C2.68250173 36.96803345 1.17188523 36.46486727 -1 35 C-2.75142541 32.12969454 -3.24303503 30.0124523 -3.1953125 26.671875 C-3.18886719 25.87265625 -3.18242187 25.0734375 -3.17578125 24.25 C-3.15902344 23.425 -3.14226562 22.6 -3.125 21.75 C-3.11597656 20.90953125 -3.10695312 20.0690625 -3.09765625 19.203125 C-3.07415817 17.13529396 -3.03828908 15.06761005 -3 13 C-4.32 13 -5.64 13 -7 13 C-6.51163302 8.60469719 -5.17023548 6.9781 -2 4 C-0.76487921 1.86690808 -0.76487921 1.86690808 0 0 Z " fill="#0497B2" transform="translate(224,366)"/>
<path d="M0 0 C0.54785156 0.32355469 1.09570312 0.64710938 1.66015625 0.98046875 C1.00015625 3.29046875 0.34015625 5.60046875 -0.33984375 7.98046875 C-0.95472656 7.87347656 -1.56960938 7.76648438 -2.203125 7.65625 C-3.01136719 7.53636719 -3.81960938 7.41648437 -4.65234375 7.29296875 C-5.45285156 7.16535156 -6.25335938 7.03773438 -7.078125 6.90625 C-9.3837068 6.78056525 -9.3837068 6.78056525 -11.109375 8.1796875 C-12.6461091 10.42868566 -12.74192162 11.77268195 -12.71484375 14.48046875 C-12.72257812 15.25390625 -12.7303125 16.02734375 -12.73828125 16.82421875 C-12.47368739 19.03355676 -12.47368739 19.03355676 -11.140625 20.8125 C-9.3495349 22.22661969 -9.3495349 22.22661969 -6.859375 21.8359375 C-5.96605469 21.61550781 -5.07273437 21.39507812 -4.15234375 21.16796875 C-3.25128906 20.95527344 -2.35023438 20.74257813 -1.421875 20.5234375 C-0.39126953 20.25466797 -0.39126953 20.25466797 0.66015625 19.98046875 C0.66015625 22.62046875 0.66015625 25.26046875 0.66015625 27.98046875 C-3.92402017 30.63168599 -8.16882728 30.49511968 -13.33984375 29.98046875 C-17.11776083 28.74405953 -18.76510993 27.70846493 -21.21484375 24.60546875 C-23.30301144 17.87692842 -23.65392832 10.80331708 -20.65234375 4.35546875 C-15.09563845 -1.35141777 -7.63542281 -3.32695385 0 0 Z " fill="#0896AE" transform="translate(307.33984375,373.01953125)"/>
<path d="M0 0 C2.31 0 4.62 0 7 0 C7.66 0.99 8.32 1.98 9 3 C9.515625 2.505 10.03125 2.01 10.5625 1.5 C13.80680017 -0.49649241 16.26217334 -0.21564385 20 0 C20 2.64 20 5.28 20 8 C19.36191406 8.19335938 18.72382813 8.38671875 18.06640625 8.5859375 C17.24011719 8.84632813 16.41382813 9.10671875 15.5625 9.375 C14.73878906 9.63023437 13.91507812 9.88546875 13.06640625 10.1484375 C10.82201984 10.80882227 10.82201984 10.80882227 10 13 C9.76725791 15.87910588 9.58027243 18.74146495 9.4375 21.625 C9.39431641 22.42679687 9.35113281 23.22859375 9.30664062 24.0546875 C9.20048543 26.0362511 9.09973145 28.01810271 9 30 C6.03 30 3.06 30 0 30 C0 20.1 0 10.2 0 0 Z " fill="#0B94AE" transform="translate(402,372)"/>
<path d="M0 0 C2.31 0 4.62 0 7 0 C7.66 0.99 8.32 1.98 9 3 C9.515625 2.505 10.03125 2.01 10.5625 1.5 C13.80680017 -0.49649241 16.26217334 -0.21564385 20 0 C19.67 2.64 19.34 5.28 19 8 C17.88625 8.28875 16.7725 8.5775 15.625 8.875 C11.99708908 9.69241329 11.99708908 9.69241329 10 12 C9.63168919 13.93257855 9.63168919 13.93257855 9.5859375 16.1328125 C9.52792969 17.34130859 9.52792969 17.34130859 9.46875 18.57421875 C9.42234375 19.83685547 9.42234375 19.83685547 9.375 21.125 C9.31699219 22.39923828 9.31699219 22.39923828 9.2578125 23.69921875 C9.16343506 25.79911684 9.08062414 27.89952891 9 30 C6.03 30 3.06 30 0 30 C0 20.1 0 10.2 0 0 Z " fill="#1095AD" transform="translate(115,372)"/>
<path d="M0 0 C2.31 0 4.62 0 7 0 C7.66 0.99 8.32 1.98 9 3 C9.515625 2.505 10.03125 2.01 10.5625 1.5 C13.80680017 -0.49649241 16.26217334 -0.21564385 20 0 C19.67 2.64 19.34 5.28 19 8 C17.88625 8.28875 16.7725 8.5775 15.625 8.875 C11.99708908 9.69241329 11.99708908 9.69241329 10 12 C9.63168919 13.93257855 9.63168919 13.93257855 9.5859375 16.1328125 C9.52792969 17.34130859 9.52792969 17.34130859 9.46875 18.57421875 C9.42234375 19.83685547 9.42234375 19.83685547 9.375 21.125 C9.31699219 22.39923828 9.31699219 22.39923828 9.2578125 23.69921875 C9.16343506 25.79911684 9.08062414 27.89952891 9 30 C6.03 30 3.06 30 0 30 C0 20.1 0 10.2 0 0 Z " fill="#1D93A7" transform="translate(347,372)"/>
<path d="M0 0 C93.72 0 187.44 0 284 0 C284 0.33 284 0.66 284 1 C190.61 1 97.22 1 1 1 C-0.28512874 14.72518291 -0.28512874 14.72518291 4 26 C4.474375 26.680625 4.94875 27.36125 5.4375 28.0625 C6.93730305 30.27907585 6.93730305 30.27907585 10 31 C10 31.66 10 32.32 10 33 C3.94972155 31.62493672 3.84443402 30.76665103 0 25 C0 16.75 0 8.5 0 0 Z " fill="#299AAD" transform="translate(132,308)"/>
<path d="M0 0 C1.3850726 -0.00874829 1.3850726 -0.00874829 2.79812646 -0.01767331 C3.81930936 -0.01389399 4.84049225 -0.01011467 5.89262009 -0.00622082 C6.97223692 -0.01004636 8.05185375 -0.01387191 9.16418624 -0.01781338 C12.80619568 -0.02818756 16.44804875 -0.02414283 20.09006882 -0.02018261 C22.69143445 -0.02452671 25.2927988 -0.02970884 27.89416122 -0.03567028 C34.24198228 -0.04844495 40.58976109 -0.05020743 46.93759283 -0.04787002 C52.09720541 -0.04608929 57.25680513 -0.04783123 62.41641617 -0.05209446 C63.14988358 -0.05268965 63.88335099 -0.05328484 64.63904469 -0.05389806 C66.12897223 -0.05510978 67.61889978 -0.05632392 69.10882732 -0.05754044 C83.09486667 -0.06842725 97.08088193 -0.06624847 111.06692263 -0.06015559 C123.86326163 -0.054989 136.65952444 -0.06623302 149.45584837 -0.08525381 C162.58895199 -0.10462573 175.72201957 -0.11288912 188.85513759 -0.10913056 C196.23074775 -0.10721707 203.60629311 -0.10972014 210.98189163 -0.1238451 C217.91918595 -0.13699581 224.85632534 -0.13450751 231.79361916 -0.12143421 C234.34216678 -0.11906215 236.89072505 -0.12182551 239.43926048 -0.13005733 C242.91420807 -0.14047324 246.38863865 -0.13246499 249.86356735 -0.11974621 C250.87582736 -0.12712049 251.88808737 -0.13449478 252.93102193 -0.14209253 C258.25369408 -0.1010157 262.04317219 0.24012675 266.632061 3.25447559 C269.632061 6.55447559 269.632061 6.55447559 269.632061 9.25447559 C267.652061 8.75947559 267.652061 8.75947559 265.632061 8.25447559 C265.302061 6.60447559 264.972061 4.95447559 264.632061 3.25447559 C234.69540572 2.25911114 204.78129436 2.11810396 174.83014798 2.15308166 C168.43216519 2.15944729 162.03418161 2.15992921 155.63619614 2.16110706 C144.94706938 2.16383558 134.25795149 2.17002828 123.56882858 2.17903614 C112.58282634 2.18828427 101.59682614 2.19532837 90.61082077 2.19954395 C89.92808401 2.19980668 89.24534725 2.2000694 88.5419215 2.20034008 C85.11517173 2.20164558 81.68842194 2.20290918 78.26167214 2.20415199 C50.05179669 2.21443683 21.84192925 2.23205316 -6.367939 2.25447559 C-3.93248332 -0.18098008 -3.33631528 0.00361031 0 0 Z " fill="#0D9BB6" transform="translate(145.36793899536133,170.7455244064331)"/>
<path d="M0 0 C2.64 0 5.28 0 8 0 C9 1 9 1 9.11352539 3.77563477 C9.10828857 4.98533936 9.10305176 6.19504395 9.09765625 7.44140625 C9.09443359 8.74658203 9.09121094 10.05175781 9.08789062 11.39648438 C9.07953401 12.7851569 9.07106905 14.17382877 9.0625 15.5625 C9.05748666 16.95507656 9.05292347 18.34765481 9.04882812 19.74023438 C9.03699434 23.1601987 9.0205088 26.58007844 9 30 C6.03 30 3.06 30 0 30 C0 20.1 0 10.2 0 0 Z " fill="#0D95AD" transform="translate(204,372)"/>
<path d="M0 0 C0.33 0 0.66 0 1 0 C1 4.95 1 9.9 1 15 C2.65 14.67 4.3 14.34 6 14 C6.33 12.35 6.66 10.7 7 9 C13.27 9.33 19.54 9.66 26 10 C26 8.02 26 6.04 26 4 C26.33 4 26.66 4 27 4 C27 6.31 27 8.62 27 11 C20.73 11 14.46 11 8 11 C9.5 15 9.5 15 12 16 C16.53113746 16.14856188 20.57882704 16.10529324 25 15 C25 17.31 25 19.62 25 22 C19.63310284 24.86234515 13.4536842 25.02331384 7.6796875 23.3125 C4.27195046 21.80353895 2.30945096 20.39648404 0 17.4375 C-1.65686766 11.74201742 -1.88647488 5.65942464 0 0 Z " fill="#1E95AA" transform="translate(138,379)"/>
<path d="M0 0 C2.42447165 1.742589 3.82692422 3.10799408 4.40625 6.09375 C4.56563284 10.07832101 4.32634514 12.43191772 2.3125 15.9375 C-1.62313629 19.44766209 -5.29970343 20.27921515 -10.5 20.25 C-11.4178125 20.25515625 -12.335625 20.2603125 -13.28125 20.265625 C-16.45388517 19.9556549 -19.67066075 19.32933925 -22 17 C-22.04092937 14.66702567 -22.04241723 12.33294775 -22 10 C-21.34 9.67 -20.68 9.34 -20 9 C-18.9790625 9.433125 -18.9790625 9.433125 -17.9375 9.875 C-14.01408188 11.37758566 -10.16410249 11.65525949 -6 12 C-6 12.66 -6 13.32 -6 14 C-5.01 13.67 -4.02 13.34 -3 13 C-2.01 12.67 -1.02 12.34 0 12 C0.66 12.33 1.32 12.66 2 13 C2.16682272 8.07872966 2.24828052 4.49656104 0 0 Z " fill="#0C93AB" transform="translate(277,383)"/>
<path d="M0 0 C1.32 0 2.64 0 4 0 C4.12375 0.804375 4.2475 1.60875 4.375 2.4375 C4.684375 3.7059375 4.684375 3.7059375 5 5 C5.66 5.33 6.32 5.66 7 6 C6.34 6 5.68 6 5 6 C5.33 6.33 5.66 6.66 6 7 C6.66 7.66 7.32 8.32 8 9 C7.67 9.66 7.34 10.32 7 11 C6.8349809 14.19770352 6.70308472 17.38828998 6.65820312 20.58984375 C6.57421875 22.59375 6.57421875 22.59375 6 26 C3.95703125 27.46875 3.95703125 27.46875 2 28 C-0.29755922 24.55366118 -0.23643976 23.28931609 -0.1953125 19.23828125 C-0.18886719 18.12001953 -0.18242187 17.00175781 -0.17578125 15.84960938 C-0.15902344 14.68236328 -0.14226562 13.51511719 -0.125 12.3125 C-0.11597656 11.13365234 -0.10695313 9.95480469 -0.09765625 8.74023438 C-0.07406423 5.82661974 -0.0411454 2.91341108 0 0 Z " fill="#0196B2" transform="translate(349,373)"/>
<path d="M0 0 C0.33 0.66 0.66 1.32 1 2 C1.66 2.33 2.32 2.66 3 3 C2.01 3.66 1.02 4.32 0 5 C0.144375 5.88042969 0.28875 6.76085937 0.4375 7.66796875 C0.623125 8.82941406 0.80875 9.99085938 1 11.1875 C1.185625 12.33605469 1.37125 13.48460937 1.5625 14.66796875 C1.93489477 17.50415393 2.08596021 20.14719564 2 23 C0 24 0 24 -2.4375 23.375 C-5.68916158 21.63020598 -6.59179204 20.4093456 -8 17 C-8.23231811 14.27783774 -8.13940871 11.74170465 -8 9 C-7.34 9 -6.68 9 -6 9 C-6 7.68 -6 6.36 -6 5 C-4.21722256 2.98376361 -2.16873843 1.62655382 0 0 Z " fill="#0498B3" transform="translate(321,375)"/>
<path d="M0 0 C1.98 0 3.96 0 6 0 C6 1.98 6 3.96 6 6 C5.67 6 5.34 6 5 6 C5 4.35 5 2.7 5 1 C3.68 1 2.36 1 1 1 C0.6550855 2.33038449 0.32483418 3.66457061 0 5 C-0.18433594 5.66644531 -0.36867187 6.33289063 -0.55859375 7.01953125 C-1.20420213 11.37881615 -0.87935653 15.61234987 -0.625 20 C-0.58117187 20.88945312 -0.53734375 21.77890625 -0.4921875 22.6953125 C-0.26319243 26.95716522 0.15636606 30.78183031 1 35 C4.96 35 8.92 35 13 35 C13 33.68 13 32.36 13 31 C10.69 31 8.38 31 6 31 C6.33 30.01 6.66 29.02 7 28 C7.598125 28.165 8.19625 28.33 8.8125 28.5 C11.11344336 29.1114124 11.11344336 29.1114124 14 29 C14 31.31 14 33.62 14 36 C11.67404054 37.16297973 10.21276769 37.16600691 7.625 37.1875 C6.85414063 37.20167969 6.08328125 37.21585937 5.2890625 37.23046875 C2.68250173 36.96803345 1.17188523 36.46486727 -1 35 C-2.75142541 32.12969454 -3.24303503 30.0124523 -3.1953125 26.671875 C-3.18886719 25.87265625 -3.18242187 25.0734375 -3.17578125 24.25 C-3.15902344 23.425 -3.14226562 22.6 -3.125 21.75 C-3.11597656 20.90953125 -3.10695312 20.0690625 -3.09765625 19.203125 C-3.07415817 17.13529396 -3.03828908 15.06761005 -3 13 C-4.32 13 -5.64 13 -7 13 C-6.51163302 8.60469719 -5.17023548 6.9781 -2 4 C-0.76487921 1.86690808 -0.76487921 1.86690808 0 0 Z " fill="#2892A3" transform="translate(224,366)"/>
<path d="M0 0 C0.763125 0.495 1.52625 0.99 2.3125 1.5 C1.3225 3.81 0.3325 6.12 -0.6875 8.5 C-4.9775 7.84 -9.2675 7.18 -13.6875 6.5 C-13.3575 5.84 -13.0275 5.18 -12.6875 4.5 C-11.6975 4.5 -10.7075 4.5 -9.6875 4.5 C-9.3575 3.18 -9.0275 1.86 -8.6875 0.5 C-10.6675 0.5 -12.6475 0.5 -14.6875 0.5 C-14.6875 1.16 -14.6875 1.82 -14.6875 2.5 C-17.77559695 4.26462683 -18.92062136 4.5 -22.6875 4.5 C-22.6875 3.84 -22.6875 3.18 -22.6875 2.5 C-15.23817162 -1.9977077 -8.26403047 -3.36163951 0 0 Z " fill="#2092A4" transform="translate(107.6875,364.5)"/>
<path d="M0 0 C-0.99 1.485 -0.99 1.485 -2 3 C-1.65554402 7.50850182 -1.65554402 7.50850182 1 11 C-0.98 11.99 -0.98 11.99 -3 13 C-3 14.65 -3 16.3 -3 18 C-4.875 19.0625 -4.875 19.0625 -7 20 C-7.66 19.67 -8.32 19.34 -9 19 C-9.10826289 16.5821288 -9.18739789 14.16912444 -9.25 11.75 C-9.28351563 11.06808594 -9.31703125 10.38617188 -9.3515625 9.68359375 C-9.41911766 6.2045031 -9.26476301 4.35451318 -7.15625 1.53125 C-4.560471 -0.31212929 -3.11725018 -0.34636113 0 0 Z " fill="#0297B2" transform="translate(148,375)"/>
<path d="M0 0 C2.97 0 5.94 0 9 0 C9 13.53 9 27.06 9 41 C6.36 41 3.72 41 1 41 C1.33 40.34 1.66 39.68 2 39 C3.65 39.33 5.3 39.66 7 40 C7 27.46 7 14.92 7 2 C5.02 2 3.04 2 1 2 C1 5.63 1 9.26 1 13 C0.67 13 0.34 13 0 13 C0 8.71 0 4.42 0 0 Z " fill="#228FA4" transform="translate(188,361)"/>
<path d="M0 0 C1.64453125 1.015625 1.64453125 1.015625 4.01953125 3.203125 C4.01953125 4.193125 4.01953125 5.183125 4.01953125 6.203125 C2.36953125 5.543125 0.71953125 4.883125 -0.98046875 4.203125 C-0.98046875 6.513125 -0.98046875 8.823125 -0.98046875 11.203125 C-1.35171875 10.543125 -1.72296875 9.883125 -2.10546875 9.203125 C-3.87864777 6.88350931 -3.87864777 6.88350931 -7.04296875 6.828125 C-10.09908116 6.91382264 -10.09908116 6.91382264 -11.98046875 9.203125 C-12.31046875 7.223125 -12.64046875 5.243125 -12.98046875 3.203125 C-13.90859375 3.6671875 -13.90859375 3.6671875 -14.85546875 4.140625 C-16.23046875 4.828125 -17.60546875 5.515625 -18.98046875 6.203125 C-18.01488474 3.65749443 -17.0417807 2.25677296 -14.98046875 0.453125 C-10.18155121 -1.54642398 -4.90728159 -1.9745275 0 0 Z " fill="#1295AA" transform="translate(157.98046875,372.796875)"/>
<path d="M0 0 C0.66 0 1.32 0 2 0 C1.67 32.01 1.34 64.02 1 97 C-1.76223278 94.23776722 -1.57856291 91.79293383 -2 88 C-1.34 88 -0.68 88 0 88 C0 58.96 0 29.92 0 0 Z " fill="#2998AB" transform="translate(121,177)"/>
<path d="M0 0 C0.44988281 0.42152344 0.89976562 0.84304688 1.36328125 1.27734375 C7.01486894 6.09082024 11.66500556 6.97303311 19 7 C18.67 8.32 18.34 9.64 18 11 C13.38 11 8.76 11 4 11 C4 10.34 4 9.68 4 9 C2.68 9 1.36 9 0 9 C-0.87890625 2.84765625 -0.87890625 2.84765625 -1 1 C-0.67 0.67 -0.34 0.34 0 0 Z " fill="#0297B2" transform="translate(288,390)"/>
<path d="M0 0 C3 0.125 3 0.125 4 1.125 C4.14115161 3.79558851 4.04247107 6.44932238 4 9.125 C3.34 9.125 2.68 9.125 2 9.125 C2 9.785 2 10.445 2 11.125 C2.66 11.455 3.32 11.785 4 12.125 C4.625 14.1875 4.625 14.1875 5 16.125 C4.360625 16.57875 3.72125 17.0325 3.0625 17.5 C0.90297594 18.96421726 0.90297594 18.96421726 0 21.125 C-2 19.125 -2 19.125 -2.1953125 15.2109375 C-2.18200376 13.64050649 -2.15813602 12.07013779 -2.125 10.5 C-2.11597656 9.69820313 -2.10695313 8.89640625 -2.09765625 8.0703125 C-2.07406223 6.08841477 -2.03819065 4.10667019 -2 2.125 C-2.66 1.795 -3.32 1.465 -4 1.125 C-3 0.125 -3 0.125 0 0 Z " fill="#0296B3" transform="translate(334,376.875)"/>
<path d="M0 0 C5.30188966 -0.07438973 10.60347268 -0.12871511 15.90576172 -0.16479492 C17.70789892 -0.1798424 19.50999973 -0.2002853 21.31201172 -0.22631836 C23.90862021 -0.26288021 26.50474275 -0.27976681 29.1015625 -0.29296875 C30.30191635 -0.31619453 30.30191635 -0.31619453 31.52651978 -0.33988953 C36.43582368 -0.34135258 39.72960286 0.31441278 44 3 C47 6.3 47 6.3 47 9 C45.68 8.67 44.36 8.34 43 8 C42.505 5.525 42.505 5.525 42 3 C40.83428467 2.98018066 39.66856934 2.96036133 38.4675293 2.93994141 C34.14553095 2.86391041 29.82387038 2.77518924 25.50219727 2.68261719 C23.63117132 2.64431706 21.76007147 2.609466 19.88891602 2.578125 C17.20041481 2.53249676 14.51242277 2.47449912 11.82421875 2.4140625 C10.98662521 2.40251129 10.14903168 2.39096008 9.28605652 2.37905884 C5.37626963 2.27953543 3.3229047 2.2152698 0 0 Z " fill="#1F91A6" transform="translate(368,171)"/>
<path d="M0 0 C0.04241723 2.33294775 0.04092937 4.66702567 0 7 C-1 8 -1 8 -3.8359375 8.1328125 C-5.58777344 8.12894531 -5.58777344 8.12894531 -7.375 8.125 C-8.53773438 8.12757813 -9.70046875 8.13015625 -10.8984375 8.1328125 C-14 8 -14 8 -17 7 C-16.67 5.35 -16.34 3.7 -16 2 C-12.37 2.33 -8.74 2.66 -5 3 C-5 2.34 -5 1.68 -5 1 C-2 0 -2 0 0 0 Z " fill="#0695B2" transform="translate(395,394)"/>
<path d="M0 0 C1.45655196 2.91310392 0.92167283 5.60425265 0.7421875 8.80859375 C0.84327375 11.05248195 0.84327375 11.05248195 2.18359375 12.8359375 C3.98970124 14.24435734 3.98970124 14.24435734 6.48046875 13.85546875 C7.82044922 13.52482422 7.82044922 13.52482422 9.1875 13.1875 C10.53908203 12.86845703 10.53908203 12.86845703 11.91796875 12.54296875 C12.94857422 12.27419922 12.94857422 12.27419922 14 12 C14 14.64 14 17.28 14 20 C9.43794641 22.6384227 5.15064928 22.55879686 0 22 C-3.625 20.5 -3.625 20.5 -6 19 C-4.68 18.67 -3.36 18.34 -2 18 C-2 18.66 -2 19.32 -2 20 C2.62 19.67 7.24 19.34 12 19 C12.33 18.01 12.66 17.02 13 16 C12.01 16.33 11.02 16.66 10 17 C8.0625 17.01953125 8.0625 17.01953125 6 16.8125 C5.319375 16.75707031 4.63875 16.70164062 3.9375 16.64453125 C1.17471007 15.72545799 0.39028596 14.53169356 -1 12 C-1.328125 9.23828125 -1.328125 9.23828125 -1.25 6.3125 C-1.22679687 4.85263672 -1.22679687 4.85263672 -1.203125 3.36328125 C-1 1 -1 1 0 0 Z " fill="#2391A2" transform="translate(294,381)"/>
<path d="M0 0 C2.93029992 0.19535333 3.85745524 0.83779389 5.8125 3.0625 C7.46026471 7.13854954 6.80007978 9.70866302 6 14 C5.0409375 14.2165625 5.0409375 14.2165625 4.0625 14.4375 C2.02454854 14.81007181 2.02454854 14.81007181 1 16 C-0.66617115 16.04063832 -2.33388095 16.042721 -4 16 C-3.34 15.67 -2.68 15.34 -2 15 C-2 14.34 -2 13.68 -2 13 C-1.34 13 -0.68 13 0 13 C0.2226746 11.56465159 0.42761906 10.12654475 0.625 8.6875 C0.79902344 7.48673828 0.79902344 7.48673828 0.9765625 6.26171875 C1.21533407 3.71276785 1.21533407 3.71276785 -1 1 C-0.67 0.67 -0.34 0.34 0 0 Z " fill="#0396B3" transform="translate(273,382)"/>
<path d="M0 0 C0 2.64 0 5.28 0 8 C-5.3637325 10.4345332 -10.1874889 10.5863498 -16 10 C-19.6875 8.5 -19.6875 8.5 -22 7 C-21.34 6.67 -20.68 6.34 -20 6 C-19.34 6.33 -18.68 6.66 -18 7 C-15.45384991 7.23172827 -12.92603775 7.41894529 -10.375 7.5625 C-9.66859375 7.60568359 -8.9621875 7.64886719 -8.234375 7.69335938 C-6.48981463 7.79944751 -4.74493303 7.90022889 -3 8 C-3 6.68 -3 5.36 -3 4 C-4.8871875 4.3403125 -4.8871875 4.3403125 -6.8125 4.6875 C-8.95703125 5.07421875 -8.95703125 5.07421875 -11 5 C-12.76171875 3.51953125 -12.76171875 3.51953125 -14 2 C-11.85430749 1.66576139 -9.70844207 1.33263257 -7.5625 1 C-6.36753906 0.814375 -5.17257813 0.62875 -3.94140625 0.4375 C-1 0 -1 0 0 0 Z " fill="#1A92A5" transform="translate(108,393)"/>
<path d="M0 0 C5.55871886 0.75800712 5.55871886 0.75800712 7.9375 2.0625 C10.95297586 3.43317084 13.73661871 3.12551466 17 3 C17 4.32 17 5.64 17 7 C12.05 7 7.1 7 2 7 C2 5.68 2 4.36 2 3 C1.01 3.33 0.02 3.66 -1 4 C-0.67 2.68 -0.34 1.36 0 0 Z " fill="#0297B4" transform="translate(88,394)"/>
<path d="M0 0 C2 1 2 1 2.8125 3 C3.85955198 5.28474077 3.85955198 5.28474077 6.625 5.75 C7.40875 5.8325 8.1925 5.915 9 6 C9.33 5.01 9.66 4.02 10 3 C11.65 3.33 13.3 3.66 15 4 C13.68 4.33 12.36 4.66 11 5 C11 5.66 11 6.32 11 7 C11.61488281 7.06058594 12.22976563 7.12117188 12.86328125 7.18359375 C14.07564453 7.30927734 14.07564453 7.30927734 15.3125 7.4375 C16.11300781 7.51871094 16.91351563 7.59992188 17.73828125 7.68359375 C20 8 20 8 23 9 C18.44567394 11.3506199 14.01617484 11.72544328 9 11 C5.10011719 8.97783854 2.22224357 6.82719725 0 3 C0 2.01 0 1.02 0 0 Z " fill="#1B92A5" transform="translate(313,392)"/>
<path d="M0 0 C2 2 2 2 2.25 4.5 C2 7 2 7 0 9 C-2.5 9.25 -2.5 9.25 -5 9 C-7 7 -7 7 -7.125 3.875 C-7.08375 2.92625 -7.0425 1.9775 -7 1 C-4.48718205 -0.25640898 -2.78302919 -0.20872719 0 0 Z " fill="#2293A4" transform="translate(211,361)"/>
<path d="M0 0 C1.98 0 3.96 0 6 0 C6 1.98 6 3.96 6 6 C5.67 6 5.34 6 5 6 C5 4.35 5 2.7 5 1 C3.68 1 2.36 1 1 1 C0.6550855 2.33038449 0.32483418 3.66457061 0 5 C-0.1753125 5.6703125 -0.350625 6.340625 -0.53125 7.03125 C-1.20468802 11.29635747 -1.10428219 15.5025063 -1.0625 19.8125 C-1.05798828 20.69615234 -1.05347656 21.57980469 -1.04882812 22.49023438 C-1.03709866 24.66018559 -1.01916495 26.83010172 -1 29 C-1.33 29 -1.66 29 -2 29 C-2 23.72 -2 18.44 -2 13 C-3.65 13 -5.3 13 -7 13 C-6.51163302 8.60469719 -5.17023548 6.9781 -2 4 C-0.76487921 1.86690808 -0.76487921 1.86690808 0 0 Z " fill="#1A94A8" transform="translate(224,366)"/>
<path d="M0 0 C2.91517292 1.07401108 4.77810176 1.77810176 7 4 C5.68 4.33 4.36 4.66 3 5 C3.66 5.66 4.32 6.32 5 7 C4.7578125 9.1640625 4.7578125 9.1640625 4.125 11.625 C3.92132813 12.44226563 3.71765625 13.25953125 3.5078125 14.1015625 C3.25644531 15.04128906 3.25644531 15.04128906 3 16 C2.34 15.67 1.68 15.34 1 15 C0.9175 14.21625 0.835 13.4325 0.75 12.625 C0.22862844 9.661455 0.22862844 9.661455 -3.0625 8.1875 C-4.031875 7.795625 -5.00125 7.40375 -6 7 C-6 6.67 -6 6.34 -6 6 C-4.02 6 -2.04 6 0 6 C-0.33 5.01 -0.66 4.02 -1 3 C-0.67 2.01 -0.34 1.02 0 0 Z " fill="#1293A9" transform="translate(270,379)"/>
<path d="M0 0 C1.98 0 3.96 0 6 0 C6 0.66 6 1.32 6 2 C6.78375 1.95875 7.5675 1.9175 8.375 1.875 C11.88853494 2.04231119 12.5797915 3.5797915 15 6 C12.68756208 6.02685412 10.3750373 6.04632841 8.0625 6.0625 C6.77472656 6.07410156 5.48695313 6.08570313 4.16015625 6.09765625 C1 6 1 6 0 5 C-0.04063832 3.33382885 -0.042721 1.66611905 0 0 Z " fill="#0396B2" transform="translate(257,395)"/>
<path d="M0 0 C0.66 0.33 1.32 0.66 2 1 C2 2.32 2 3.64 2 5 C2.99 5.33 3.98 5.66 5 6 C5 5.34 5 4.68 5 4 C7.97 4 10.94 4 14 4 C14 4.66 14 5.32 14 6 C11.36 6.33 8.72 6.66 6 7 C6 8.32 6 9.64 6 11 C7.92022703 12.77409808 7.92022703 12.77409808 10 14 C5.25 13.125 5.25 13.125 3 12 C3 10.68 3 9.36 3 8 C2.38125 7.9175 1.7625 7.835 1.125 7.75 C-1 7 -1 7 -2.25 4.9375 C-2.62125 3.9784375 -2.62125 3.9784375 -3 3 C-2.01 2.01 -1.02 1.02 0 0 Z " fill="#1792A5" transform="translate(260,365)"/>
<path d="M0 0 C1.74949772 2.62424658 2.65389981 4.55727216 3.625 7.5 C3.88539063 8.2734375 4.14578125 9.046875 4.4140625 9.84375 C5 12 5 12 5 15 C-0.28 15 -5.56 15 -11 15 C-11 14.34 -11 13.68 -11 13 C-4.565 12.505 -4.565 12.505 2 12 C1.34 11.01 0.68 10.02 0 9 C-0.1953125 6.73828125 -0.1953125 6.73828125 -0.125 4.3125 C-0.10695313 3.50425781 -0.08890625 2.69601563 -0.0703125 1.86328125 C-0.04710937 1.24839844 -0.02390625 0.63351563 0 0 Z " fill="#1B8FA6" transform="translate(379,146)"/>
<path d="M0 0 C0.99 0.33 1.98 0.66 3 1 C7.53604515 1.14632404 11.57453821 1.10636545 16 0 C16 2.31 16 4.62 16 7 C11.29669569 9.50842897 6.21221812 9.62731121 1 9 C0.34 8.34 -0.32 7.68 -1 7 C3.95 7 8.9 7 14 7 C14 5.35 14 3.7 14 2 C13.01 2.495 13.01 2.495 12 3 C10.33555539 3.0955931 8.66718037 3.12984645 7 3.125 C6.113125 3.12757813 5.22625 3.13015625 4.3125 3.1328125 C2 3 2 3 0 2 C0 1.34 0 0.68 0 0 Z " fill="#208EA0" transform="translate(147,394)"/>
<path d="M0 0 C1.98 0.66 3.96 1.32 6 2 C6 2.33 6 2.66 6 3 C4.35 3 2.7 3 1 3 C1.33 4.65 1.66 6.3 2 8 C8.27 8 14.54 8 21 8 C17.82223457 11.17776543 14.92434829 11.15805241 10.625 11.1875 C9.22121094 11.20876953 9.22121094 11.20876953 7.7890625 11.23046875 C4.57426756 10.96482043 1.35994789 10.35994789 -1 8 C-1.125 4.5 -1.125 4.5 -1 1 C-0.67 0.67 -0.34 0.34 0 0 Z " fill="#22909F" transform="translate(256,392)"/>
<path d="M0 0 C0 1.65 0 3.3 0 5 C-4.62 5 -9.24 5 -14 5 C-13.67 3.68 -13.34 2.36 -13 1 C-11.20843648 0.83222817 -9.4167455 0.66581706 -7.625 0.5 C-6.62726563 0.4071875 -5.62953125 0.314375 -4.6015625 0.21875 C-2 0 -2 0 0 0 Z " fill="#0196B1" transform="translate(161,396)"/>
<path d="M0 0 C-0.79664063 0.38091797 -0.79664063 0.38091797 -1.609375 0.76953125 C-2.66898438 1.28580078 -2.66898438 1.28580078 -3.75 1.8125 C-4.44609375 2.14894531 -5.1421875 2.48539062 -5.859375 2.83203125 C-8.05354187 3.92301854 -8.05354187 3.92301854 -9.8125 5.625 C-12.98042367 7.61626631 -15.55286648 7.29019815 -19.25 7.1875 C-20.51328125 7.16042969 -21.7765625 7.13335937 -23.078125 7.10546875 C-24.04234375 7.07066406 -25.0065625 7.03585938 -26 7 C-22.07633124 4.38422083 -18.03307348 3.2314647 -13.5625 1.8125 C-12.70333984 1.52697266 -11.84417969 1.24144531 -10.95898438 0.94726562 C-10.12818359 0.68236328 -9.29738281 0.41746094 -8.44140625 0.14453125 C-7.68545166 -0.09934326 -6.92949707 -0.34321777 -6.15063477 -0.59448242 C-3.76105635 -1.04505454 -2.28727015 -0.75896519 0 0 Z " fill="#1E92A8" transform="translate(233,95)"/>
<path d="M0 0 C5.25216742 0.02870037 9.70181612 0.14343738 14.609375 2.265625 C14.11105776 5.95317257 13.50869857 7.87053162 10.609375 10.265625 C9.619375 9.605625 8.629375 8.945625 7.609375 8.265625 C8.104375 7.811875 8.599375 7.358125 9.109375 6.890625 C10.83546837 5.38926981 10.83546837 5.38926981 10.609375 3.265625 C5.659375 2.935625 0.709375 2.605625 -4.390625 2.265625 C-2.390625 0.265625 -2.390625 0.265625 0 0 Z " fill="#2091A3" transform="translate(266.390625,362.734375)"/>
<path d="M0 0 C0 2.64 0 5.28 0 8 C-2.64 8.33 -5.28 8.66 -8 9 C-8.33 8.01 -8.66 7.02 -9 6 C-7.35 6 -5.7 6 -4 6 C-4.33 5.01 -4.66 4.02 -5 3 C-5.598125 3.165 -6.19625 3.33 -6.8125 3.5 C-9 4 -9 4 -12 4 C-7.99899414 0.12023674 -5.51903037 -0.43286513 0 0 Z " fill="#1A96AC" transform="translate(422,372)"/>
<path d="M0 0 C0.66 0 1.32 0 2 0 C2 1.65 2 3.3 2 5 C3.65 4.34 5.3 3.68 7 3 C6.67 4.32 6.34 5.64 6 7 C5.34 7 4.68 7 4 7 C4 7.66 4 8.32 4 9 C4.66 9 5.32 9 6 9 C7.25 15.625 7.25 15.625 5 19 C4.16142312 16.39741676 3.32896656 13.79314353 2.5 11.1875 C2.14228516 10.08051758 2.14228516 10.08051758 1.77734375 8.95117188 C0.80059864 5.86744804 0 3.25504191 0 0 Z " fill="#1392AB" transform="translate(97,196)"/>
<path d="M0 0 C0.33 0 0.66 0 1 0 C1.01981934 0.68626465 1.03963867 1.3725293 1.06005859 2.07958984 C1.15510945 5.17845779 1.26486847 8.27663294 1.375 11.375 C1.4059375 12.45523437 1.436875 13.53546875 1.46875 14.6484375 C1.50742188 15.6796875 1.54609375 16.7109375 1.5859375 17.7734375 C1.6173584 18.72653809 1.6487793 19.67963867 1.68115234 20.66162109 C1.78555796 23.18895176 1.78555796 23.18895176 4 25 C4.474375 25.680625 4.94875 26.36125 5.4375 27.0625 C6.93730305 29.27907585 6.93730305 29.27907585 10 30 C10 30.66 10 31.32 10 32 C6.39323081 31.18027973 4.37750357 30.3990752 1.8125 27.6875 C-1.22126046 22.85180799 -0.4182144 17.11784705 -0.25 11.625 C-0.23195312 10.50738281 -0.21390625 9.38976562 -0.1953125 8.23828125 C-0.14835555 5.4912997 -0.08269468 2.74609953 0 0 Z " fill="#1F92A6" transform="translate(132,309)"/>
<path d="M0 0 C1.86353132 2.79529698 2.72523712 4.87228033 3.7265625 8.03515625 C4.0359375 9.00904297 4.3453125 9.98292969 4.6640625 10.98632812 C4.98117187 12.00146484 5.29828125 13.01660156 5.625 14.0625 C5.94984375 15.08150391 6.2746875 16.10050781 6.609375 17.15039062 C9 24.72907366 9 24.72907366 9 27 C8.34 27 7.68 27 7 27 C5.39644899 23.49223216 4.77963136 20.85645121 5 17 C4.34 17 3.68 17 3 17 C2.89042969 16.30132812 2.78085937 15.60265625 2.66796875 14.8828125 C2.50941406 13.97273438 2.35085938 13.06265625 2.1875 12.125 C2.03667969 11.22007813 1.88585937 10.31515625 1.73046875 9.3828125 C1.16948699 6.65587522 1.16948699 6.65587522 -2 5 C-1.34 3.35 -0.68 1.7 0 0 Z " fill="#1D90A5" transform="translate(358,79)"/>
<path d="M0 0 C2.64 0 5.28 0 8 0 C8 2.31 8 4.62 8 7 C5.36 6.67 2.72 6.34 0 6 C0.185625 5.38125 0.37125 4.7625 0.5625 4.125 C1.23686176 1.95839822 1.23686176 1.95839822 0 0 Z " fill="#0F97AC" transform="translate(230,372)"/>
<path d="M0 0 C1.2375 0.9590625 1.2375 0.9590625 2.5 1.9375 C2.17 2.5975 1.84 3.2575 1.5 3.9375 C0.18 3.2775 -1.14 2.6175 -2.5 1.9375 C-2.5 1.2775 -2.5 0.6175 -2.5 -0.0625 C-11.70692462 -0.46054845 -11.70692462 -0.46054845 -20.5 1.9375 C-21.16 1.2775 -21.82 0.6175 -22.5 -0.0625 C-14.52897938 -2.65601223 -7.52755189 -4.91308748 0 0 Z " fill="#1E92A5" transform="translate(350.5,63.0625)"/>
<path d="M0 0 C3.86509265 2.44789201 4.13406332 3.33515829 6 8 C9.96 8 13.92 8 18 8 C15 11 15 11 11.125 11.4375 C6.98289766 11.27760267 4.88527923 10.05500154 2 7 C0.29194726 4.31591712 0 3.23830467 0 0 Z " fill="#2391A4" transform="translate(169,392)"/>
<path d="M0 0 C0.33 0.66 0.66 1.32 1 2 C2.88764903 2.68472665 2.88764903 2.68472665 5.0625 3.125 C5.79597656 3.29257812 6.52945312 3.46015625 7.28515625 3.6328125 C7.85105469 3.75398438 8.41695313 3.87515625 9 4 C8.67 4.99 8.34 5.98 8 7 C5.69 7 3.38 7 1 7 C0.67 6.01 0.34 5.02 0 4 C-3.60992379 4.65585189 -3.60992379 4.65585189 -7 6 C-5.52522876 2.59668175 -4.14385429 0 0 0 Z " fill="#1894A9" transform="translate(378,373)"/>
<path d="M0 0 C0 0.66 0 1.32 0 2 C-0.66 2 -1.32 2 -2 2 C-2.33 2.99 -2.66 3.98 -3 5 C-3.99 4.67 -4.98 4.34 -6 4 C-9.07922743 4.65828772 -12.06416085 5.53641303 -15.08984375 6.40625 C-17.99784559 6.99956044 -19.24157667 6.81489611 -22 6 C-18.8980736 4.9929564 -15.79311902 3.99559195 -12.6875 3 C-11.80642578 2.71382812 -10.92535156 2.42765625 -10.01757812 2.1328125 C-8.74624023 1.72675781 -8.74624023 1.72675781 -7.44921875 1.3125 C-6.27879028 0.93544922 -6.27879028 0.93544922 -5.0847168 0.55078125 C-3 0 -3 0 0 0 Z " fill="#2A93A5" transform="translate(128,127)"/>
<path d="M0 0 C0.33 0 0.66 0 1 0 C1 3.3 1 6.6 1 10 C1.99 9.01 2.98 8.02 4 7 C5.26264601 11.29299643 4.62950412 13.87831311 3 18 C0.33610311 15.33610311 0.01857923 13.59676491 -0.09765625 9.86328125 C-0.08605469 8.69152344 -0.07445313 7.51976562 -0.0625 6.3125 C-0.05347656 5.13300781 -0.04445313 3.95351563 -0.03515625 2.73828125 C-0.02355469 1.83464844 -0.01195313 0.93101562 0 0 Z " fill="#1795A9" transform="translate(80,377)"/>
<path d="M0 0 C0.66 0.33 1.32 0.66 2 1 C1.7834375 1.9590625 1.7834375 1.9590625 1.5625 2.9375 C0.82763202 6.93844788 0.41418889 10.95504896 0 15 C-1.90318884 12.14521674 -2.4619099 10.58058692 -3.125 7.3125 C-3.29257813 6.50425781 -3.46015625 5.69601563 -3.6328125 4.86328125 C-3.75398438 4.24839844 -3.87515625 3.63351563 -4 3 C-3.34 3 -2.68 3 -2 3 C-1.34 2.01 -0.68 1.02 0 0 Z " fill="#1294AC" transform="translate(93,168)"/>
<path d="M0 0 C0.33 0 0.66 0 1 0 C1.33 1.98 1.66 3.96 2 6 C2.99 6 3.98 6 5 6 C5.12375 6.7425 5.2475 7.485 5.375 8.25 C5.95486701 10.80141485 6.73708739 12.7267573 8 15 C4.94334338 14.09126425 3.27694297 13.32469175 1.1875 10.875 C-0.40268838 7.02507023 -0.2108574 4.14686216 0 0 Z " fill="#1B96A9" transform="translate(256,370)"/>
<path d="M0 0 C0.33 0 0.66 0 1 0 C1.68884385 12.89668769 1.68884385 12.89668769 -0.9375 16.8125 C-1.618125 17.534375 -2.29875 18.25625 -3 19 C-3.33 19 -3.66 19 -4 19 C-4.125 16.625 -4.125 16.625 -4 14 C-3.34 13.34 -2.68 12.68 -2 12 C-1.3162387 9.11282395 -1.3162387 9.11282395 -0.875 5.875 C-0.70742188 4.77929688 -0.53984375 3.68359375 -0.3671875 2.5546875 C-0.24601562 1.71164062 -0.12484375 0.86859375 0 0 Z " fill="#1D93A2" transform="translate(340,381)"/>
<path d="M0 0 C1.65 0 3.3 0 5 0 C5 1.98 5 3.96 5 6 C2.69 6 0.38 6 -2 6 C-1.34 4.02 -0.68 2.04 0 0 Z " fill="#0296B0" transform="translate(128,373)"/>
<path d="M0 0 C0.33 0 0.66 0 1 0 C1.0875127 3.22899426 1.14056146 6.45768116 1.1875 9.6875 C1.22520508 11.05551758 1.22520508 11.05551758 1.26367188 12.45117188 C1.31798713 17.43007034 1.34955169 20.99235 -2 25 C-2.33 25 -2.66 25 -3 25 C-3 22.69 -3 20.38 -3 18 C-2.34 18 -1.68 18 -1 18 C-0.505 9.09 -0.505 9.09 0 0 Z " fill="#0F92A8" transform="translate(415,313)"/>
<path d="M0 0 C1.99669127 3.67466188 3.34259917 7.55342492 4.6875 11.5 C4.92533203 12.16386719 5.16316406 12.82773438 5.40820312 13.51171875 C7.45823897 19.53557773 7.45823897 19.53557773 6 23 C5.65066406 22.00097656 5.30132812 21.00195312 4.94140625 19.97265625 C4.48192081 18.66921795 4.02227721 17.3658354 3.5625 16.0625 C3.33240234 15.40314453 3.10230469 14.74378906 2.86523438 14.06445312 C1.88035408 10.77671378 1.88035408 10.77671378 0 8 C-0.14115161 5.32941149 -0.04247107 2.67567762 0 0 Z " fill="#1F8FA1" transform="translate(372,123)"/>
<path d="M0 0 C9.66987552 -0.68797533 9.66987552 -0.68797533 13.625 1.8125 C14.40875 2.534375 15.1925 3.25625 16 4 C16 4.99 16 5.98 16 7 C15.236875 6.690625 14.47375 6.38125 13.6875 6.0625 C11.81210323 5.32106407 9.91315348 4.63771783 8 4 C8 3.01 8 2.02 8 1 C5.36 1 2.72 1 0 1 C0 0.67 0 0.34 0 0 Z " fill="#1B92A4" transform="translate(146,372)"/>
<path d="M0 0 C-1.98 1.32 -3.96 2.64 -6 4 C-6 3.34 -6 2.68 -6 2 C-6.99 2.66 -7.98 3.32 -9 4 C-11.48046875 4.4140625 -11.48046875 4.4140625 -14.1875 4.625 C-15.08855469 4.69976562 -15.98960937 4.77453125 -16.91796875 4.8515625 C-17.60503906 4.90054688 -18.29210937 4.94953125 -19 5 C-16.01243632 3.00829088 -13.44575614 1.97092021 -10.0625 0.8125 C-9.02222656 0.44769531 -7.98195313 0.08289063 -6.91015625 -0.29296875 C-4.04543948 -0.98896034 -2.71018643 -1.02529944 0 0 Z " fill="#1A92A8" transform="translate(309,71)"/>
<path d="M0 0 C0.99 0 1.98 0 3 0 C2.67 1.98 2.34 3.96 2 6 C0.02 6 -1.96 6 -4 6 C-4 4.68 -4 3.36 -4 2 C-2.68 2 -1.36 2 0 2 C0 1.34 0 0.68 0 0 Z " fill="#0296B5" transform="translate(362,373)"/>
<path d="M0 0 C2.97 0.495 2.97 0.495 6 1 C5.67 2.65 5.34 4.3 5 6 C4.01 5.67 3.02 5.34 2 5 C1.34 5.66 0.68 6.32 0 7 C0 6.01 0 5.02 0 4 C-0.66 3.67 -1.32 3.34 -2 3 C-1.34 3 -0.68 3 0 3 C0 2.01 0 1.02 0 0 Z " fill="#039AB5" transform="translate(102,365)"/>
<path d="M0 0 C0 0.66 0 1.32 0 2 C-0.61488281 2.12117188 -1.22976562 2.24234375 -1.86328125 2.3671875 C-2.67152344 2.53476563 -3.47976562 2.70234375 -4.3125 2.875 C-5.11300781 3.03742188 -5.91351563 3.19984375 -6.73828125 3.3671875 C-9.25301118 3.94478999 -9.25301118 3.94478999 -12 6 C-14.33199388 6.07905064 -16.66832622 6.08798769 -19 6 C-15.82848903 3.88565935 -13.13567139 2.98044063 -9.5 1.875 C-8.3553125 1.52179688 -7.210625 1.16859375 -6.03125 0.8046875 C-3 0 -3 0 0 0 Z " fill="#2592A6" transform="translate(179,111)"/>
<path d="M0 0 C0.66 0.66 1.32 1.32 2 2 C0.89591797 1.94779297 0.89591797 1.94779297 -0.23046875 1.89453125 C-7.60597935 1.6201154 -7.60597935 1.6201154 -14 5 C-14.99 5.33 -15.98 5.66 -17 6 C-16 3 -16 3 -13.5625 1.3125 C-9.02690902 -0.3585072 -4.79487593 -0.66403857 0 0 Z " fill="#2591A3" transform="translate(332,372)"/>
<path d="M0 0 C2.97 0.33 5.94 0.66 9 1 C8.67 2.32 8.34 3.64 8 5 C5.69 4.67 3.38 4.34 1 4 C0.67 2.68 0.34 1.36 0 0 Z " fill="#039AB7" transform="translate(378,372)"/>
<path d="M0 0 C-5.06922851 2.8595648 -11.34143008 5.7291995 -17.2734375 4.546875 C-17.84320313 4.36640625 -18.41296875 4.1859375 -19 4 C-16.39898714 3.13499112 -13.79493589 2.28273072 -11.1875 1.4375 C-10.44951172 1.19064453 -9.71152344 0.94378906 -8.95117188 0.68945312 C-3.33984375 -1.11328125 -3.33984375 -1.11328125 0 0 Z " fill="#2592A9" transform="translate(147,122)"/>
<path d="M0 0 C2.46503067 1.77174079 3.84833352 3.11554496 4.37109375 6.1640625 C4.54287148 12.36826977 4.54287148 12.36826977 2.47265625 14.77734375 C1.98667969 15.18082031 1.50070312 15.58429688 1 16 C0.67 15.01 0.34 14.02 0 13 C0.66 13 1.32 13 2 13 C2.16682272 8.07872966 2.24828052 4.49656104 0 0 Z " fill="#2394A4" transform="translate(277,383)"/>
<path d="M0 0 C0.99 0 1.98 0 3 0 C3 1.98 3 3.96 3 6 C0.36 6 -2.28 6 -5 6 C-4.67 5.34 -4.34 4.68 -4 4 C-3.01 4 -2.02 4 -1 4 C-0.67 2.68 -0.34 1.36 0 0 Z " fill="#1094A6" transform="translate(99,365)"/>
<path d="M0 0 C-2.90600261 1.25664978 -4.79604584 2 -8 2 C-8.33 2.99 -8.66 3.98 -9 5 C-11.31 4.67 -13.62 4.34 -16 4 C-13.41588269 2.27725513 -11.45097344 1.31104478 -8.5625 0.3125 C-7.41974609 -0.09548828 -7.41974609 -0.09548828 -6.25390625 -0.51171875 C-3.78170279 -1.04729142 -2.37016716 -0.80445309 0 0 Z " fill="#2291A7" transform="translate(328,65)"/>
<path d="M0 0 C2.97 0.33 5.94 0.66 9 1 C9 1.33 9 1.66 9 2 C7.824375 2.1546875 7.824375 2.1546875 6.625 2.3125 C3.66954819 2.77595022 3.66954819 2.77595022 2 6 C1.01 5.67 0.02 5.34 -1 5 C-0.67 3.35 -0.34 1.7 0 0 Z " fill="#0299B0" transform="translate(379,396)"/>
<path d="M0 0 C1.98 0 3.96 0 6 0 C5.67 1.32 5.34 2.64 5 4 C3.1875 4.6875 3.1875 4.6875 1 5 C-0.75 3.5625 -0.75 3.5625 -2 2 C-1.34 2 -0.68 2 0 2 C0 1.34 0 0.68 0 0 Z " fill="#0297B5" transform="translate(93,365)"/>
<path d="M0 0 C1.65 0 3.3 0 5 0 C5 1.98 5 3.96 5 6 C4.01 6 3.02 6 2 6 C0 3 0 3 0 0 Z " fill="#0395B5" transform="translate(206,363)"/>
<path d="M0 0 C0.66 0.33 1.32 0.66 2 1 C1.071875 2.3303125 1.071875 2.3303125 0.125 3.6875 C-1.65397741 6.46061184 -2.91083602 8.9140354 -4 12 C-4.33 12 -4.66 12 -5 12 C-4.58525633 6.71201818 -3.64775386 3.88309282 0 0 Z " fill="#2493A3" transform="translate(290,374)"/>
<path d="M0 0 C1.32 0.33 2.64 0.66 4 1 C3.34 3.31 2.68 5.62 2 8 C-0.97 7.505 -0.97 7.505 -4 7 C-3.67 6.34 -3.34 5.68 -3 5 C-0.4375 4.375 -0.4375 4.375 2 4 C2 3.01 2 2.02 2 1 C1.34 0.67 0.68 0.34 0 0 Z " fill="#2291A4" transform="translate(305,373)"/>
<path d="M0 0 C0 0.33 0 0.66 0 1 C-4 2.33333333 -8 3.66666667 -12 5 C-12.33 4.01 -12.66 3.02 -13 2 C-8.50343896 -0.24828052 -4.92127034 -0.16682272 0 0 Z " fill="#1893A8" transform="translate(143,161)"/>
<path d="M0 0 C-0.99 1.485 -0.99 1.485 -2 3 C-5.2578125 3.29296875 -5.2578125 3.29296875 -9.125 3.1875 C-11.04699219 3.14689453 -11.04699219 3.14689453 -13.0078125 3.10546875 C-13.99523437 3.07066406 -14.98265625 3.03585938 -16 3 C-11.23513188 -0.17657874 -5.6216797 -0.17567749 0 0 Z " fill="#1596B0" transform="translate(223,99)"/>
<path d="M0 0 C0 2.31 0 4.62 0 7 C-1.65 7.33 -3.3 7.66 -5 8 C-4.67 7.01 -4.34 6.02 -4 5 C-3.34 5 -2.68 5 -2 5 C-1.67 4.01 -1.34 3.02 -1 2 C-2.32 1.67 -3.64 1.34 -5 1 C-2 0 -2 0 0 0 Z " fill="#2290A2" transform="translate(395,394)"/>
<path d="M0 0 C1.53690745 2.41040161 2.09752136 3.50082285 1.5390625 6.359375 C1.23742187 7.14828125 0.93578125 7.9371875 0.625 8.75 C0.32851563 9.54921875 0.03203125 10.3484375 -0.2734375 11.171875 C-0.51320313 11.77515625 -0.75296875 12.3784375 -1 13 C-1.33 13 -1.66 13 -2 13 C-2.16682272 8.07872966 -2.24828052 4.49656104 0 0 Z " fill="#1894A7" transform="translate(314,378)"/>
<path d="M0 0 C3.88862987 1.26117725 5.89375599 2.45264167 8 6 C8 6.66 8 7.32 8 8 C6.68 7.67 5.36 7.34 4 7 C3.67 5.35 3.34 3.7 3 2 C2.01 1.67 1.02 1.34 0 1 C0 0.67 0 0.34 0 0 Z " fill="#1A949F" transform="translate(407,172)"/>
<path d="M0 0 C0.66 0.33 1.32 0.66 2 1 C0.625 3.5 0.625 3.5 -1 6 C-1.66 6 -2.32 6 -3 6 C-3 6.66 -3 7.32 -3 8 C-3.66 8 -4.32 8 -5 8 C-3.8141763 4.62496331 -2.72426311 2.35277269 0 0 Z " fill="#1C90A4" transform="translate(90,139)"/>
<path d="M0 0 C0 0.66 0 1.32 0 2 C-0.66 2 -1.32 2 -2 2 C-2.33 2.99 -2.66 3.98 -3 5 C-4.32 4.67 -5.64 4.34 -7 4 C-6.67 3.01 -6.34 2.02 -6 1 C-3 0 -3 0 0 0 Z " fill="#1694A9" transform="translate(128,127)"/>
<path d="M0 0 C2.08954032 4.17908064 2.16552619 4.80410573 1 9 C0.01 9 -0.98 9 -2 9 C-1.34 6.03 -0.68 3.06 0 0 Z " fill="#0C95A2" transform="translate(394,377)"/>
<path d="M0 0 C1.98 0.99 1.98 0.99 4 2 C3.67 4.64 3.34 7.28 3 10 C1.11608215 6.73454239 0.50712033 3.71888239 0 0 Z " fill="#1B94B0" transform="translate(116,256)"/>
<path d="M0 0 C2.97 0 5.94 0 9 0 C8 2 8 2 5.625 2.8125 C4.325625 2.9053125 4.325625 2.9053125 3 3 C2.01 2.01 1.02 1.02 0 0 Z " fill="#1B8FA4" transform="translate(94,395)"/>
<path d="M0 0 C1.32 0 2.64 0 4 0 C3.39816251 2.02045442 2.72693904 4.02111039 2 6 C1.01 6.495 1.01 6.495 0 7 C0 4.69 0 2.38 0 0 Z " fill="#1D92A3" transform="translate(412,331)"/>
</svg>
